<svg xmlns="http://www.w3.org/2000/svg" xml:space="preserve" width="302.362" height="80mm" viewBox="0 0 80 80"><g style="display:inline"><path d="M79.648 56.766h52.097a16.416 16.416 0 0 1 16.451 16.451v52.097a16.416 16.416 0 0 1-16.451 16.452H79.648a16.416 16.416 0 0 1-16.452-16.452V73.217a16.416 16.416 0 0 1 16.452-16.451" style="display:inline;fill:#f3f3f3;fill-opacity:1;stroke-width:.461125;stroke-dasharray:none" transform="translate(-59.479 -53.426)scale(.94118)"/></g><rect width="53.657" height="6" x="12.257" y="38" ry=".304" style="fill:#c8a449;fill-opacity:1;stroke:none;stroke-width:4.11322;stroke-linecap:round;stroke-linejoin:round;stroke-dasharray:none;stroke-opacity:1;paint-order:normal"/><rect width="4" height="55" x="22" y="14" ry="2.788" style="fill:#cfb060;fill-opacity:1;stroke:none;stroke-width:3.4002;stroke-linecap:round;stroke-linejoin:round;stroke-dasharray:none;stroke-opacity:1;paint-order:normal"/><rect width="4" height="55" x="30" y="14" ry="2.788" style="fill:#f99bb6;fill-opacity:1;stroke:none;stroke-width:3.4;stroke-linecap:round;stroke-linejoin:round;stroke-dasharray:none;stroke-opacity:1;paint-order:normal"/><rect width="4" height="55" x="38" y="14" ry="2.788" style="fill:#e7dcb2;fill-opacity:1;stroke:none;stroke-width:3.4002;stroke-linecap:round;stroke-linejoin:round;stroke-dasharray:none;stroke-opacity:1;paint-order:normal"/><rect width="4" height="55" x="46" y="14.241" ry="2.788" style="fill:#79b751;fill-opacity:1;stroke:none;stroke-width:3.4002;stroke-linecap:round;stroke-linejoin:round;stroke-dasharray:none;stroke-opacity:1;paint-order:normal"/><rect width="4" height="51.307" x="54" y="15.314" ry="2.601" style="fill:#cfb060;fill-opacity:1;stroke:none;stroke-width:3.28405;stroke-linecap:round;stroke-linejoin:round;stroke-dasharray:none;stroke-opacity:1;paint-order:normal"/><rect width="6" height="56.951" x="62" y="12.049" ry="2.887" style="fill:#bb9637;fill-opacity:1;stroke:none;stroke-width:4.23759;stroke-linecap:round;stroke-linejoin:round;stroke-dasharray:none;stroke-opacity:1;paint-order:normal"/><rect width="56" height="6" x="12" y="12" ry="2.25" style="fill:#bb9637;fill-opacity:1;stroke:none;stroke-width:4.20196;stroke-linecap:round;stroke-linejoin:round;stroke-dasharray:none;stroke-opacity:1;paint-order:normal"/><rect width="56" height="6" x="12" y="64" ry="2.25" style="fill:#bb9637;fill-opacity:1;stroke:none;stroke-width:4.20207;stroke-linecap:round;stroke-linejoin:round;stroke-dasharray:none;stroke-opacity:1;paint-order:normal"/><rect width="6" height="56.303" x="12" y="12.657" ry="2.854" style="fill:#bb9637;fill-opacity:1;stroke:none;stroke-width:4.21342;stroke-linecap:round;stroke-linejoin:round;stroke-dasharray:none;stroke-opacity:1;paint-order:normal"/></svg>